<svg width="103" height="24" viewBox="0 0 103 24" fill="none" xmlns="http://www.w3.org/2000/svg">
<path d="M50.0518 8.2832L49.7611 7.87634L50.0518 8.2832ZM102.544 8.19376C102.593 8.46545 102.413 8.72574 102.141 8.77514L97.7138 9.58012C97.4421 9.62952 97.1818 9.44932 97.1324 9.17763C97.083 8.90594 97.2632 8.64565 97.5349 8.59625L101.47 7.88071L100.755 3.94523C100.705 3.67354 100.886 3.41325 101.157 3.36385C101.429 3.31446 101.689 3.49466 101.739 3.76635L102.544 8.19376ZM0.0517578 23.2832L-4.52287e-05 22.7859C2.03076 22.5744 4.62608 22.6631 7.67371 22.631C10.7448 22.5986 14.3432 22.4457 18.4757 21.7589C26.7341 20.3863 37.163 16.875 49.7611 7.87634L50.0518 8.2832L50.3424 8.69007C37.623 17.7753 27.0519 21.3472 18.6397 22.7454C14.4369 23.4439 10.7823 23.5982 7.68425 23.6309C4.56274 23.6638 2.07275 23.5754 0.103561 23.7805L0.0517578 23.2832ZM50.0518 8.2832L49.7611 7.87634C60.391 0.283657 71.9039 -0.849556 81.5572 0.475393C91.1986 1.7987 99.0226 5.57799 102.336 7.87211L102.052 8.2832L101.767 8.6943C98.5809 6.48842 90.9049 2.76777 81.4213 1.46611C71.9496 0.166086 60.7125 1.28287 50.3424 8.69007L50.0518 8.2832Z" fill="#557804"/>
</svg>
