<svg width="103" height="24" viewBox="0 0 103 24" fill="none" xmlns="http://www.w3.org/2000/svg">
<path d="M50.0518 15.4973L49.7611 15.9042L50.0518 15.4973ZM102.544 15.5868C102.593 15.3151 102.413 15.0548 102.141 15.0054L97.7138 14.2004C97.4421 14.151 97.1818 14.3312 97.1324 14.6029C97.083 14.8746 97.2632 15.1349 97.5349 15.1843L101.47 15.8998L100.755 19.8353C100.705 20.107 100.886 20.3673 101.157 20.4167C101.429 20.4661 101.689 20.2859 101.739 20.0142L102.544 15.5868ZM0.0517578 0.497314L-4.52287e-05 0.994624C2.03076 1.20617 4.62608 1.11744 7.67371 1.14956C10.7448 1.18194 14.3432 1.33478 18.4757 2.02162C26.7341 3.39419 37.163 6.90557 49.7611 15.9042L50.0518 15.4973L50.3424 15.0904C37.623 6.00525 27.0519 2.4333 18.6397 1.03515C14.4369 0.336638 10.7823 0.182276 7.68425 0.149619C4.56274 0.116715 2.07275 0.205129 0.103561 5.24521e-06L0.0517578 0.497314ZM50.0518 15.4973L49.7611 15.9042C60.391 23.4969 71.9039 24.6301 81.5572 23.3051C91.1986 21.9818 99.0226 18.2025 102.336 15.9084L102.052 15.4973L101.767 15.0862C98.5809 17.2921 90.9049 21.0127 81.4213 22.3144C71.9496 23.6144 60.7125 22.4976 50.3424 15.0904L50.0518 15.4973Z" fill="#557804"/>
</svg>
