<svg width="147" height="30" viewBox="0 0 147 30" fill="none" xmlns="http://www.w3.org/2000/svg">
<rect x="0.5" y="0.5" width="29" height="29" rx="14.5" stroke="#557804"/>
<path fill-rule="evenodd" clip-rule="evenodd" d="M21 15C21 15.5098 20.6204 15.9231 20.1522 15.9231L10.5865 15.9231C10.5893 15.9256 10.5919 15.928 10.5946 15.9305C10.8757 16.1898 11.1727 16.4437 11.4505 16.6812C11.4721 16.6996 11.4935 16.718 11.5149 16.7362C11.7915 16.9728 12.0822 17.2217 12.2648 17.4149C12.6006 17.7703 12.6082 18.3548 12.2819 18.7203C11.9555 19.0858 11.4188 19.0942 11.083 18.7389C10.9798 18.6297 10.7743 18.4504 10.4675 18.188C10.4452 18.169 10.4226 18.1497 10.3997 18.1301C10.126 17.8962 9.80485 17.6217 9.49839 17.339C9.17 17.036 8.82883 16.6968 8.56352 16.3578C8.4307 16.1879 8.29957 15.9964 8.19828 15.7903C8.10061 15.5917 8 15.3178 8 15C8 14.6821 8.10061 14.4083 8.19828 14.2097C8.29957 14.0036 8.4307 13.8121 8.56352 13.6421C8.82883 13.3032 9.17 12.964 9.49839 12.661C9.80485 12.3782 10.126 12.1038 10.3998 11.8698C10.4226 11.8502 10.4452 11.8309 10.4675 11.8119C10.7743 11.5496 10.9798 11.3703 11.083 11.2612C11.4188 10.9058 11.9555 10.9141 12.2819 11.2797C12.6082 11.6453 12.6006 12.2297 12.2648 12.585C12.0822 12.7783 11.7915 13.0273 11.5149 13.2638C11.4935 13.282 11.472 13.3004 11.4505 13.3188C11.1727 13.5562 10.8757 13.8101 10.5946 14.0695C10.5919 14.0719 10.5893 14.0744 10.5865 14.077L20.1522 14.077C20.6204 14.077 21 14.4901 21 15Z" fill="#557804"/>
<path d="M37.344 21V11.048C37.344 10.824 37.216 10.696 36.992 10.696H36.32V9.752H37.456C38.144 9.752 38.432 10.04 38.432 10.728V13.64C38.432 14.008 38.4 14.296 38.4 14.296H38.432C38.432 14.296 39.104 12.76 41.168 12.76C43.328 12.76 44.672 14.488 44.672 16.984C44.672 19.528 43.152 21.192 41.04 21.192C39.12 21.192 38.4 19.64 38.4 19.64H38.368C38.368 19.64 38.4 19.912 38.4 20.296V21H37.344ZM38.4 17C38.4 18.616 39.232 20.232 40.96 20.232C42.384 20.232 43.552 19.032 43.552 16.984C43.552 15.016 42.496 13.752 41.008 13.752C39.664 13.752 38.4 14.712 38.4 17ZM45.9056 18.808C45.9056 16.136 49.4416 16.04 50.8336 16.04H51.2816V15.944C51.2816 14.264 50.6736 13.672 49.2016 13.672C48.8016 13.672 47.6336 13.784 47.6336 14.376V14.888H46.5936V14.12C46.5936 13 48.5136 12.76 49.2176 12.76C51.7616 12.76 52.3696 14.12 52.3696 15.848V19.704C52.3696 19.944 52.4976 20.056 52.7216 20.056H53.3936V21H52.2896C51.6016 21 51.3296 20.696 51.3296 20.04C51.3296 19.688 51.3456 19.448 51.3456 19.448H51.3136C51.3296 19.448 50.6576 21.192 48.6416 21.192C47.2976 21.192 45.9056 20.408 45.9056 18.808ZM47.0256 18.744C47.0256 19.496 47.6176 20.264 48.8176 20.264C50.3536 20.264 51.2816 18.664 51.2816 17.272V16.904H50.8176C49.5536 16.904 47.0256 16.936 47.0256 18.744ZM54.3744 16.984C54.3744 14.52 56.2144 12.76 58.6144 12.76C59.5264 12.76 61.4784 13.144 61.4784 14.472V15.192H60.4544V14.728C60.4544 14.056 59.2864 13.736 58.6144 13.736C56.8864 13.736 55.4944 15.032 55.4944 16.984C55.4944 18.968 56.9504 20.2 58.6464 20.2C60.2944 20.2 61.2384 19.064 61.2384 19.064L61.7504 19.88C61.7504 19.88 60.6624 21.192 58.5984 21.192C56.1984 21.192 54.3744 19.48 54.3744 16.984ZM63.4846 21V11.048C63.4846 10.824 63.3566 10.696 63.1326 10.696H62.4606V9.752H63.5966C64.2846 9.752 64.5726 9.992 64.5726 10.68V16.024H65.4046C65.7086 16.024 66.0926 15.928 66.3166 15.64L68.3806 12.952H69.7086L67.3886 15.896C66.9886 16.392 66.7806 16.472 66.7806 16.472V16.504C66.7806 16.504 67.0206 16.616 67.2766 17.096L68.7326 19.704C68.8766 19.976 69.0366 20.056 69.4686 20.056H69.9006V21H69.1486C68.3486 21 68.1246 20.872 67.7566 20.2L66.1566 17.32C65.9806 17 65.5966 16.968 65.3086 16.968H64.5726V21H63.4846ZM75.9568 18.072V13.864H74.9008V12.952H75.9728V10.728H77.0448V12.952H79.0608V13.864H77.0448V17.96C77.0448 19.848 78.2448 20.088 78.8528 20.088C79.0768 20.088 79.2208 20.056 79.2208 20.056V21.032C79.2208 21.032 79.0288 21.064 78.7568 21.064C77.8288 21.064 75.9568 20.76 75.9568 18.072ZM80.3119 16.936C80.3119 14.552 82.2159 12.76 84.5519 12.76C86.9039 12.76 88.8079 14.552 88.8079 16.936C88.8079 19.368 86.9039 21.192 84.5679 21.192C82.2159 21.192 80.3119 19.368 80.3119 16.936ZM81.4319 16.936C81.4319 18.808 82.8399 20.216 84.5679 20.216C86.2799 20.216 87.6879 18.808 87.6879 16.936C87.6879 15.112 86.2799 13.752 84.5679 13.752C82.8399 13.752 81.4319 15.112 81.4319 16.936ZM95.1565 21V11.048C95.1565 10.824 95.0285 10.696 94.8045 10.696H94.1325V9.752H95.2685C95.9565 9.752 96.2445 10.04 96.2445 10.696V14.104C96.2445 14.472 96.2125 14.76 96.2125 14.76H96.2445C96.5485 13.992 97.6205 12.76 99.4285 12.76C101.429 12.76 102.133 13.896 102.133 15.88V19.704C102.133 19.944 102.26 20.056 102.485 20.056H103.157V21H102.021C101.333 21 101.045 20.712 101.045 20.024V16.168C101.045 14.904 100.853 13.784 99.2845 13.784C97.9245 13.784 96.7405 14.728 96.3725 16.072C96.2765 16.392 96.2445 16.76 96.2445 17.144V21H95.1565ZM104.14 16.936C104.14 14.552 106.044 12.76 108.38 12.76C110.732 12.76 112.636 14.552 112.636 16.936C112.636 19.368 110.732 21.192 108.396 21.192C106.044 21.192 104.14 19.368 104.14 16.936ZM105.26 16.936C105.26 18.808 106.668 20.216 108.396 20.216C110.108 20.216 111.516 18.808 111.516 16.936C111.516 15.112 110.108 13.752 108.396 13.752C106.668 13.752 105.26 15.112 105.26 16.936ZM114.673 21V14.248C114.673 14.024 114.545 13.896 114.321 13.896H113.649V12.952H114.769C115.441 12.952 115.745 13.24 115.745 13.848V14.216C115.745 14.536 115.713 14.792 115.713 14.792H115.745C116.145 13.704 117.409 12.76 118.657 12.76C120.145 12.76 120.913 13.448 121.153 14.776H121.185C121.617 13.688 122.785 12.76 124.145 12.76C126.097 12.76 126.817 13.896 126.817 15.88V19.704C126.817 19.944 126.945 20.056 127.169 20.056H127.841V21H126.705C126.017 21 125.729 20.712 125.729 20.024V16.152C125.729 14.84 125.457 13.752 123.985 13.752C122.769 13.752 121.761 14.84 121.441 16.024C121.329 16.376 121.297 16.76 121.297 17.192V21H120.209V16.152C120.209 14.936 120.033 13.752 118.513 13.752C117.201 13.752 116.225 14.888 115.889 16.12C115.793 16.456 115.761 16.824 115.761 17.192V21H114.673ZM128.812 16.984C128.812 14.344 130.62 12.76 132.78 12.76C135.004 12.76 136.156 14.472 136.156 16.472C136.156 16.664 136.124 17.016 136.124 17.016H129.948C129.98 19.048 131.404 20.216 133.068 20.216C134.54 20.216 135.484 19.224 135.484 19.224L136.012 20.04C136.012 20.04 134.844 21.192 133.02 21.192C130.636 21.192 128.812 19.464 128.812 16.984ZM129.996 16.152H135.036C134.972 14.488 133.948 13.672 132.764 13.672C131.436 13.672 130.268 14.536 129.996 16.152Z" fill="black"/>
</svg>
