<svg width="31" height="31" viewBox="0 0 31 31" fill="none" xmlns="http://www.w3.org/2000/svg">
<path d="M15.42 30.6582C23.9362 30.6582 30.84 23.7951 30.84 15.3291C30.84 6.86307 23.9362 0 15.42 0C6.90377 0 0 6.86307 0 15.3291C0 23.7951 6.90377 30.6582 15.42 30.6582Z" fill="#F3BA2F"/>
<path d="M11.6768 13.8001L15.42 10.079L19.1651 13.8021L21.3432 11.6368L15.42 5.74854L9.49869 11.6349L11.6768 13.8001ZM5.78247 15.3292L7.96055 13.164L10.1386 15.3292L7.96055 17.4945L5.78247 15.3292ZM11.6768 16.8583L15.42 20.5794L19.1651 16.8564L21.3432 19.0207L15.42 24.9099L9.49869 19.0235L9.4958 19.0207L11.6768 16.8583ZM20.7013 15.3292L22.8794 13.164L25.0575 15.3292L22.8794 17.4945L20.7013 15.3292ZM17.6289 15.3273H17.6308V15.3292L15.42 17.527L13.212 15.3331L13.2082 15.3292L13.212 15.3263L13.5985 14.9412L13.7864 14.7544L15.42 13.1314L17.6289 15.3273Z" fill="white"/>
</svg>
