<svg width="16" height="16" viewBox="0 0 16 16" fill="none" xmlns="http://www.w3.org/2000/svg">
<path fill-rule="evenodd" clip-rule="evenodd" d="M7.46647 1.60005C7.46647 0.716822 6.74965 0 5.86642 0H1.60005C0.716822 0 0 0.716822 0 1.60005V5.86642C0 6.74965 0.716822 7.46647 1.60005 7.46647H5.86642C6.74965 7.46647 7.46647 6.74965 7.46647 5.86642V1.60005ZM6.4002 1.60005V5.86642C6.4002 6.16083 6.16083 6.4002 5.86642 6.4002H1.60005C1.30564 6.4002 1.06627 6.16083 1.06627 5.86642V1.60005C1.06627 1.30564 1.30564 1.06627 1.60005 1.06627H5.86642C6.16083 1.06627 6.4002 1.30564 6.4002 1.60005Z" fill="black"/>
<path fill-rule="evenodd" clip-rule="evenodd" d="M7.46647 10.1341C7.46647 9.25084 6.74965 8.53402 5.86642 8.53402H1.60005C0.716822 8.53402 0 9.25084 0 10.1341V14.4004C0 15.2837 0.716822 16.0005 1.60005 16.0005H5.86642C6.74965 16.0005 7.46647 15.2837 7.46647 14.4004V10.1341ZM6.4002 10.1341V14.4004C6.4002 14.6948 6.16083 14.9342 5.86642 14.9342H1.60005C1.30564 14.9342 1.06627 14.6948 1.06627 14.4004V10.1341C1.06627 9.83966 1.30564 9.60029 1.60005 9.60029H5.86642C6.16083 9.60029 6.4002 9.83966 6.4002 10.1341Z" fill="black"/>
<path fill-rule="evenodd" clip-rule="evenodd" d="M16.0002 1.60005C16.0002 0.716822 15.2833 0 14.4001 0H10.1337C9.25051 0 8.53369 0.716822 8.53369 1.60005V5.86642C8.53369 6.74965 9.25051 7.46647 10.1337 7.46647H14.4001C15.2833 7.46647 16.0002 6.74965 16.0002 5.86642V1.60005ZM14.9339 1.60005V5.86642C14.9339 6.16083 14.6945 6.4002 14.4001 6.4002H10.1337C9.83933 6.4002 9.59996 6.16083 9.59996 5.86642V1.60005C9.59996 1.30564 9.83933 1.06627 10.1337 1.06627H14.4001C14.6945 1.06627 14.9339 1.30564 14.9339 1.60005Z" fill="black"/>
<path fill-rule="evenodd" clip-rule="evenodd" d="M16.0002 10.1341C16.0002 9.25084 15.2833 8.53402 14.4001 8.53402H10.1337C9.25051 8.53402 8.53369 9.25084 8.53369 10.1341V14.4004C8.53369 15.2837 9.25051 16.0005 10.1337 16.0005H14.4001C15.2833 16.0005 16.0002 15.2837 16.0002 14.4004V10.1341ZM14.9339 10.1341V14.4004C14.9339 14.6948 14.6945 14.9342 14.4001 14.9342H10.1337C9.83933 14.9342 9.59996 14.6948 9.59996 14.4004V10.1341C9.59996 9.83966 9.83933 9.60029 10.1337 9.60029H14.4001C14.6945 9.60029 14.9339 9.83966 14.9339 10.1341Z" fill="black"/>
</svg>
