<svg width="200" height="200" viewBox="0 0 200 200" fill="none" xmlns="http://www.w3.org/2000/svg">
<g clip-path="url(#clip0_138_318)">
<mask id="mask0_138_318" style="mask-type:luminance" maskUnits="userSpaceOnUse" x="0" y="0" width="200" height="200">
<path d="M200 0H0V200H200V0Z" fill="white"/>
</mask>
<g mask="url(#mask0_138_318)">
<path d="M50.6094 52.2871H33.8399C27.0423 52.2871 21.9895 58.5762 23.454 65.2141L27.2048 82.2172C30.6559 97.8621 43.9618 109.391 59.9387 110.579" stroke="#557804" stroke-width="8" stroke-miterlimit="10" stroke-linecap="round" stroke-linejoin="round"/>
<path d="M134.02 47.9961C143.84 50.0586 149.391 52.2852 149.391 52.2852C151.586 73.3906 147.196 95.9414 140.063 110.578C135.844 119.234 131.336 129.809 128.363 137.004C126.278 142.047 121.36 145.332 115.903 145.332H84.0978C78.6408 145.332 73.7228 142.047 71.6369 137.004C68.6643 129.809 64.1564 119.234 59.9377 110.578C52.8049 95.9414 48.4143 73.3906 50.6096 52.2852C50.6096 52.2852 56.1604 50.0586 65.9807 47.9961" stroke="#557804" stroke-width="8" stroke-miterlimit="10" stroke-linecap="round" stroke-linejoin="round"/>
<path d="M149.391 52.2871H166.16C172.958 52.2871 178.01 58.5762 176.546 65.2141L172.795 82.2172C169.344 97.8621 156.038 109.391 140.061 110.579" stroke="#557804" stroke-width="8" stroke-miterlimit="10" stroke-linecap="round" stroke-linejoin="round"/>
<path d="M75.0208 177.78V169.191C75.0208 165.538 77.9813 162.578 81.6336 162.578H118.366C122.019 162.578 124.979 165.538 124.979 169.191V177.78" stroke="#557804" stroke-width="8" stroke-miterlimit="10" stroke-linecap="round" stroke-linejoin="round"/>
<path d="M112.49 145.332H87.5103V162.578H112.49V145.332Z" stroke="#557804" stroke-width="8" stroke-miterlimit="10" stroke-linecap="round" stroke-linejoin="round"/>
<path d="M99.6336 177.781H66.6289C60.834 177.781 55.5258 181.023 52.8805 186.179L49.9442 191.902C48.7325 194.263 50.4473 197.07 53.1016 197.07H146.898C149.553 197.07 151.267 194.263 150.056 191.902L147.12 186.179C144.474 181.023 139.166 177.781 133.371 177.781H113.357" stroke="#557804" stroke-width="8" stroke-miterlimit="10" stroke-linecap="round" stroke-linejoin="round"/>
<path d="M80.8584 84.8796C75.7635 87.5582 69.8088 83.232 70.7818 77.5585L73.8205 59.8425C74.2068 57.5898 73.46 55.291 71.8232 53.6953L58.9517 41.1488C54.8299 37.1308 57.1045 30.1308 62.8006 29.3031L80.5885 26.7183C82.8506 26.3898 84.806 24.9691 85.8174 22.9191L93.7725 6.80073C96.3201 1.63901 103.68 1.63901 106.228 6.80073L114.183 22.9191C115.195 24.9687 117.15 26.3894 119.412 26.7183L137.2 29.3031C142.896 30.1308 145.171 37.1312 141.049 41.1488L128.177 53.6953C126.54 55.2906 125.794 57.5894 126.18 59.8425L129.219 77.5585C130.192 83.232 124.237 87.5582 119.142 84.8796L103.232 76.5152C101.209 75.4515 98.792 75.4515 96.7685 76.5152L93.0111 78.4906" stroke="#557804" stroke-width="8" stroke-miterlimit="10" stroke-linecap="round" stroke-linejoin="round"/>
<path d="M104.868 35.3562C104.868 35.3562 102.098 32.8007 97.8267 34.0871C93.9052 35.2683 92.9313 40.6339 95.5962 42.7242C97.1263 43.9242 99.4286 44.9113 102.532 46.0078C109.477 48.4628 106.909 58.257 99.845 58.3039C97.088 58.3222 95.7993 58.1472 93.3774 56.5628" stroke="#557804" stroke-width="8" stroke-miterlimit="10" stroke-linecap="round" stroke-linejoin="round"/>
<path d="M99.845 58.3042V61.8792" stroke="#557804" stroke-width="8" stroke-miterlimit="10" stroke-linecap="round" stroke-linejoin="round"/>
<path d="M99.845 30.4187V33.7355" stroke="#557804" stroke-width="8" stroke-miterlimit="10" stroke-linecap="round" stroke-linejoin="round"/>
<path d="M140.062 8.21094H150.624" stroke="#557804" stroke-width="8" stroke-miterlimit="10" stroke-linecap="round" stroke-linejoin="round"/>
<path d="M145.343 2.92969V13.4918" stroke="#557804" stroke-width="8" stroke-miterlimit="10" stroke-linecap="round" stroke-linejoin="round"/>
<path d="M162.828 31.9453C164.446 31.9453 165.758 30.6336 165.758 29.0156C165.758 27.3976 164.446 26.0859 162.828 26.0859C161.21 26.0859 159.898 27.3976 159.898 29.0156C159.898 30.6336 161.21 31.9453 162.828 31.9453Z" fill="#557804"/>
</g>
</g>
<defs>
<clipPath id="clip0_138_318">
<rect width="200" height="200" fill="white"/>
</clipPath>
</defs>
</svg>
