<svg width="31" height="31" viewBox="0 0 31 31" fill="none" xmlns="http://www.w3.org/2000/svg">
<path d="M15.305 30.4295C23.7577 30.4295 30.61 23.6177 30.61 15.2148C30.61 6.81189 23.7577 0 15.305 0C6.85228 0 0 6.81189 0 15.2148C0 23.6177 6.85228 30.4295 15.305 30.4295Z" fill="#1B429A"/>
<path d="M15.7805 3.80365V12.2383L22.9519 15.4239L15.7805 3.80365Z" fill="white" fill-opacity="0.602"/>
<path d="M15.7812 3.80371L8.60889 15.424L15.7812 12.2384V3.80371Z" fill="white"/>
<path d="M15.7805 20.8897V26.621L22.9566 16.7513L15.7805 20.8897Z" fill="white" fill-opacity="0.602"/>
<path d="M15.7814 26.621V20.8888L8.60913 16.7513L15.7814 26.621Z" fill="white"/>
<path d="M15.7805 19.5636L22.9519 15.4242L15.7805 12.2406V19.5636Z" fill="white" fill-opacity="0.2"/>
<path d="M8.60913 15.4242L15.7814 19.5636V12.2406L8.60913 15.4242Z" fill="white" fill-opacity="0.602"/>
</svg>
