<svg width="192" height="55" viewBox="0 0 192 55" fill="none" xmlns="http://www.w3.org/2000/svg">
<path d="M54.976 31.001C54.8742 29.8026 54.6258 28.6082 54.2756 27.4098C53.9742 28.6082 53.5262 29.8513 52.9765 31.001C52.0276 32.9469 50.7774 34.84 49.2298 36.4854C49.181 38.7807 48.7819 40.9744 48.0285 43.0178C47.6294 44.1634 47.1285 45.2603 46.5298 46.3084C47.5276 45.8088 48.4805 45.1628 49.3805 44.3625C51.4289 42.8188 53.1801 40.8241 54.4792 38.5288C55.0778 36.0832 55.2774 33.54 54.976 31.001Z" fill="#557804"/>
<path d="M10.6436 5.72004C9.89424 6.61785 9.19379 7.61316 8.64401 8.66128C9.74356 8.01128 10.8431 7.51566 12.0445 7.11754C14.0929 6.37004 16.2432 5.97192 18.4911 5.91911C20.1893 4.32255 22.0382 3.07537 24.0378 2.12881C25.1373 1.58037 26.2858 1.1335 27.4383 0.832876C26.2898 0.483502 25.1903 0.28444 24.0378 0.182878C21.4396 -0.166496 18.8414 0.0325662 16.3409 0.731314C14.1418 2.03131 12.1952 3.72536 10.6436 5.72004Z" fill="#557804"/>
<path d="M0.148917 24.0175C0.250728 25.1631 0.450277 26.3616 0.800505 27.5072C1.10187 26.3088 1.54983 25.1144 2.09961 24.0175C3.04849 22.0228 4.29872 20.1297 5.89919 18.4844C5.94805 16.2419 6.34715 14.0969 7.10055 12.0535C7.49965 10.8551 8.00056 9.7582 8.64808 8.66133C7.59739 9.20977 6.59964 9.90851 5.69964 10.656C3.65121 12.2526 1.953 14.2472 0.649826 16.441C-0.00176293 18.9313 -0.152443 21.4744 0.148917 24.0175Z" fill="#557804"/>
<path d="M44.4814 49.3471C45.2796 48.4006 45.9312 47.4012 46.5298 46.3043C45.4303 47.0031 44.2289 47.5027 43.0316 47.9009C40.9832 48.6971 38.8329 49.0993 36.5361 49.1481C34.8867 50.6918 32.989 51.939 31.0383 52.8855C29.9387 53.434 28.7903 53.8808 27.6378 54.1815C28.7862 54.5308 29.8858 54.7299 31.0383 54.8315C33.6894 55.1808 36.2877 54.9818 38.837 54.283C40.9832 52.9871 42.9298 51.293 44.4814 49.3471Z" fill="#557804"/>
<path d="M49.3805 10.656C48.4805 9.90851 47.4827 9.25851 46.4809 8.71008C47.1325 9.7582 47.6293 10.9038 47.9796 12.0494C48.7778 14.0929 49.1809 16.2379 49.2298 18.5291C50.7773 20.1744 52.0276 22.0675 52.9764 24.0135C53.5262 25.1103 53.9742 26.2559 54.2756 27.4056C54.6258 26.26 54.8253 25.1631 54.9271 24.0135C55.2774 21.4216 55.0778 18.8297 54.3774 16.3354C53.0783 14.1457 51.3801 12.2038 49.3805 10.656Z" fill="#557804"/>
<path d="M24.0378 54.8802C25.2391 54.7787 26.4365 54.5308 27.6378 54.1815C26.4365 53.8808 25.1903 53.434 24.0378 52.8856C22.0871 51.939 20.1893 50.6918 18.54 49.1481C16.2391 49.0993 14.04 48.7012 11.9915 47.9496C10.8431 47.5515 9.79241 47.0518 8.74172 46.5034C9.2915 47.4987 9.89015 48.4493 10.6395 49.2943C12.2888 51.3865 14.2884 53.1334 16.5852 54.3806C19.0409 54.9818 21.5414 55.1321 24.0378 54.8802Z" fill="#557804"/>
<path d="M5.64672 44.4112C6.5956 45.2075 7.64628 45.9062 8.74584 46.5075C8.04538 45.4106 7.54447 44.2122 7.09651 42.969C6.34718 40.9256 5.94808 38.7806 5.89514 36.5381C4.29467 34.8441 3.04444 32.9997 2.09556 31.005C1.54579 29.8594 1.09782 28.7097 0.796459 27.5153C0.44623 28.661 0.246681 29.8594 0.14487 31.005C-0.15649 33.5969 0.0471319 36.2416 0.694648 38.7847C1.99782 40.9215 3.69603 42.8634 5.64672 44.4112Z" fill="#557804"/>
<path d="M31.0383 0.138305C29.8369 0.239867 28.6396 0.487678 27.4382 0.837052C28.6396 1.13768 29.8858 1.58455 31.0383 2.13298C33.0378 3.07954 34.8867 4.32673 36.5849 5.92328C38.8329 5.97203 40.9831 6.37016 43.0316 7.12172C44.2329 7.51984 45.3813 8.06827 46.4809 8.71827C45.9311 7.67015 45.2307 6.67484 44.4325 5.72828C42.8849 3.68485 40.8854 1.93798 38.5845 0.642052C36.1329 0.0367423 33.5835 -0.162319 31.0383 0.138305Z" fill="#557804"/>
<path d="M28.8953 24.5454L33.5638 13.8112L33.6382 13.5874C33.7017 13.3961 33.5623 13.1978 33.3608 13.1929L25.6779 13.0049C25.5572 13.0019 25.4465 13.0716 25.397 13.1817L18.177 29.2358C18.0912 29.4265 18.222 29.6442 18.4306 29.6582L26.735 30.2136C26.9225 30.2262 27.0524 30.4059 27.0055 30.5878L24.4359 40.5566C24.3542 40.8737 24.7673 41.0737 24.9653 40.8129L36.6344 25.4465C36.7844 25.2489 36.6435 24.965 36.3955 24.965H29.1704C28.9543 24.965 28.8091 24.7435 28.8953 24.5454Z" fill="#557804"/>
<path d="M62.1988 35V23.02H60.8988V20.8H67.2588C69.8588 20.8 71.6788 22.4 71.6788 25.08C71.6788 27.64 69.9188 28.7 69.3188 28.82V28.86C69.3188 28.86 69.7588 29.06 70.0188 29.58L71.3988 32.32C71.6188 32.74 71.9588 32.78 72.3988 32.78H72.6588V35H71.2788C70.2188 35 69.7588 34.84 69.2988 33.94L67.4788 30.36C67.1788 29.8 66.8788 29.7 66.1388 29.7H64.8188V35H62.1988ZM64.8188 27.46H66.8988C68.2188 27.46 68.9988 26.64 68.9988 25.22C68.9988 23.82 68.2188 23.02 66.9388 23.02H64.8188V27.46ZM73.3588 29.9C73.3588 26.76 75.4788 24.56 78.5388 24.56C81.4588 24.56 83.0588 26.7 83.0588 29.4C83.0588 29.7 82.9987 30.34 82.9987 30.34H75.9588C76.1588 32.14 77.4788 33.08 79.0188 33.08C80.6588 33.08 81.8788 31.94 81.8788 31.94L82.9388 33.7C82.9388 33.7 81.3788 35.24 78.8388 35.24C75.4588 35.24 73.3588 32.8 73.3588 29.9ZM76.0388 28.58H80.4588C80.4188 27.36 79.5788 26.52 78.5388 26.52C77.2388 26.52 76.3188 27.3 76.0388 28.58ZM84.4516 27.78C84.4516 23.68 87.5316 20.56 91.6516 20.56C93.4716 20.56 97.0316 21.32 97.0316 23.74V25.32H94.6516V24.52C94.6516 23.48 92.9516 23 91.7116 23C89.1716 23 87.1716 24.82 87.1716 27.78C87.1716 30.56 89.2116 32.8 91.7916 32.8C94.4716 32.8 96.0916 30.92 96.0916 30.92L97.4716 32.8C97.4716 32.8 95.4116 35.24 91.7516 35.24C87.4116 35.24 84.4516 31.98 84.4516 27.78ZM98.6713 29.9C98.6713 26.78 101.151 24.56 104.251 24.56C107.371 24.56 109.851 26.78 109.851 29.9C109.851 33.04 107.371 35.24 104.251 35.24C101.151 35.24 98.6713 33.04 98.6713 29.9ZM101.231 29.9C101.231 31.8 102.611 33.08 104.251 33.08C105.911 33.08 107.291 31.8 107.291 29.9C107.291 28.02 105.911 26.72 104.251 26.72C102.611 26.72 101.231 28.02 101.231 29.9ZM112.152 35V27.4C112.152 27.1 111.992 26.96 111.712 26.96H110.912V24.8H113.232C114.132 24.8 114.592 25.18 114.592 26.04V26.64C114.592 27.02 114.552 27.28 114.552 27.28H114.592C115.052 25.82 116.272 24.66 117.832 24.66C118.052 24.66 118.292 24.7 118.292 24.7V27.2C118.292 27.2 118.032 27.16 117.672 27.16C116.592 27.16 115.352 27.78 114.892 29.3C114.752 29.8 114.672 30.36 114.672 30.96V35H112.152ZM119.003 29.9C119.003 26.76 121.123 24.56 124.183 24.56C127.103 24.56 128.703 26.7 128.703 29.4C128.703 29.7 128.643 30.34 128.643 30.34H121.603C121.803 32.14 123.123 33.08 124.663 33.08C126.303 33.08 127.523 31.94 127.523 31.94L128.583 33.7C128.583 33.7 127.023 35.24 124.483 35.24C121.103 35.24 119.003 32.8 119.003 29.9ZM121.683 28.58H126.103C126.063 27.36 125.223 26.52 124.183 26.52C122.883 26.52 121.963 27.3 121.683 28.58ZM135.389 27.78C135.389 23.68 138.469 20.56 142.589 20.56C144.409 20.56 147.969 21.32 147.969 23.74V25.32H145.589V24.52C145.589 23.48 143.889 23 142.649 23C140.109 23 138.109 24.82 138.109 27.78C138.109 30.56 140.149 32.8 142.729 32.8C145.409 32.8 147.029 30.92 147.029 30.92L148.409 32.8C148.409 32.8 146.349 35.24 142.689 35.24C138.349 35.24 135.389 31.98 135.389 27.78ZM150.549 35V23.4C150.549 23.1 150.389 22.96 150.109 22.96H149.309V20.8H151.729C152.669 20.8 153.089 21.22 153.089 22.14V25.72C153.089 26.22 153.049 26.58 153.049 26.58H153.089C153.569 25.6 154.829 24.56 156.589 24.56C158.869 24.56 160.149 25.74 160.149 28.44V32.42C160.149 32.7 160.309 32.86 160.589 32.86H161.389V35H158.969C158.029 35 157.629 34.6 157.629 33.64V28.96C157.629 27.72 157.289 26.88 156.009 26.88C154.669 26.88 153.629 27.76 153.249 29C153.129 29.4 153.089 29.84 153.089 30.32V35H150.549ZM162.422 32.06C162.422 28.86 166.822 28.6 168.482 28.6H168.802V28.52C168.802 27.06 168.222 26.52 166.922 26.52C166.462 26.52 165.562 26.64 165.562 27.2V27.74H163.202V26.66C163.202 24.76 165.882 24.56 166.942 24.56C170.342 24.56 171.342 26.34 171.342 28.62V32.42C171.342 32.7 171.502 32.86 171.782 32.86H172.582V35H170.302C169.362 35 169.002 34.48 169.002 33.88C169.002 33.62 169.022 33.44 169.022 33.44H168.982C168.982 33.44 168.202 35.24 165.902 35.24C164.082 35.24 162.422 34.1 162.422 32.06ZM164.982 31.94C164.982 32.62 165.482 33.26 166.522 33.26C167.882 33.26 168.842 31.82 168.842 30.58V30.34H168.402C167.082 30.34 164.982 30.52 164.982 31.94ZM174.813 23.14V20.8H177.013V23.14H174.813ZM174.693 33.64V27.4C174.693 27.1 174.533 26.96 174.253 26.96H173.453V24.8H175.873C176.813 24.8 177.213 25.22 177.213 26.16V32.42C177.213 32.7 177.373 32.86 177.653 32.86H178.453V35H176.033C175.093 35 174.693 34.6 174.693 33.64ZM180.59 35V27.4C180.59 27.1 180.43 26.96 180.15 26.96H179.35V24.8H181.69C182.59 24.8 183.03 25.22 183.03 25.94V26.24C183.03 26.46 182.99 26.68 182.99 26.68H183.03C183.47 25.82 184.57 24.56 186.63 24.56C188.89 24.56 190.19 25.74 190.19 28.44V32.42C190.19 32.7 190.35 32.86 190.63 32.86H191.43V35H189.01C188.05 35 187.65 34.6 187.65 33.64V28.96C187.65 27.72 187.33 26.88 186.05 26.88C184.69 26.88 183.67 27.74 183.31 28.96C183.17 29.38 183.11 29.84 183.11 30.32V35H180.59Z" fill="#557804"/>
</svg>
