<svg width="19" height="18" viewBox="0 0 19 18" fill="none" xmlns="http://www.w3.org/2000/svg">
<path d="M14.7297 5.61532C14.7297 8.71046 12.1973 11.2367 9.10217 11.2306C6.00702 11.2245 3.47463 8.69211 3.48686 5.60308C3.49909 2.50794 6.01314 0.00612797 9.10217 1.10848e-05C12.2034 -0.0061058 14.7297 2.52017 14.7297 5.61532ZM9.10828 1.46806C6.82057 1.46806 4.9488 3.33372 4.95491 5.61532C4.95491 7.89692 6.82668 9.76868 9.10828 9.76868C11.3899 9.76868 13.2617 7.89692 13.2617 5.61532C13.2678 3.33372 11.396 1.46806 9.10828 1.46806Z" fill="white"/>
<path d="M8.86395 9.68652C11.4636 9.72322 13.6168 10.3594 15.4641 11.8458C16.8954 12.9958 17.8497 14.4455 18.1494 16.2805C18.2044 16.6108 18.2167 16.9473 18.2228 17.2837C18.2289 17.6446 17.9414 17.9504 17.5989 17.9871C17.2135 18.03 16.871 17.8036 16.7976 17.4305C16.7486 17.1919 16.767 16.9473 16.7364 16.7026C16.5101 14.9776 15.5864 13.6931 14.204 12.7144C12.5035 11.5155 10.5889 11.0628 8.52752 11.1852C6.88819 11.2769 5.36509 11.7601 4.01937 12.7205C2.73483 13.6319 1.83564 14.8186 1.53592 16.3968C1.48086 16.6842 1.48086 16.9901 1.4564 17.2837C1.42581 17.6201 1.21784 17.8954 0.911993 17.9749C0.612265 18.0544 0.26972 17.9443 0.116797 17.6629C0.0372778 17.5223 -0.00554041 17.3449 0.000576481 17.1858C0.025044 15.2835 0.808006 13.6992 2.1476 12.3902C3.62178 10.9466 5.42626 10.1392 7.45706 9.82721C7.99535 9.74769 8.55199 9.71711 8.86395 9.68652Z" fill="white"/>
</svg>
