<svg width="18" height="18" viewBox="0 0 18 18" fill="none" xmlns="http://www.w3.org/2000/svg">
<path d="M13.2403 13H11.5541C11.3921 13 11.2367 12.9339 11.1221 12.8161C11.0075 12.6984 10.9431 12.5388 10.9431 12.3723C10.9431 12.2058 11.0075 12.0461 11.1221 11.9284C11.2367 11.8107 11.3921 11.7445 11.5541 11.7445H11.939L9.58072 8.8193L7.5157 10.4891C7.26552 10.6926 6.94777 10.7875 6.63039 10.7535C6.313 10.7195 6.02116 10.5592 5.81725 10.307L3.14128 7.03027C3.03758 6.90207 2.98769 6.7368 3.00259 6.57081C3.01748 6.40483 3.09594 6.25171 3.22071 6.14516C3.34547 6.03861 3.50633 5.98735 3.66788 6.00266C3.82943 6.01796 3.97845 6.09858 4.08215 6.22677L6.75201 9.52236L8.81703 7.83376C9.0672 7.63023 9.38495 7.53532 9.70234 7.56934C10.0197 7.60336 10.3116 7.7636 10.5155 8.01581L12.776 10.7841V10.4389C12.7822 10.3563 12.8042 10.2759 12.8407 10.2021C12.8773 10.1283 12.9276 10.0627 12.989 10.009C13.0503 9.95537 13.1213 9.91469 13.198 9.88934C13.2747 9.86399 13.3555 9.85447 13.4358 9.86134C13.5161 9.86767 13.5945 9.89027 13.6662 9.92783C13.738 9.96538 13.8019 10.0172 13.8541 10.0802C13.9064 10.1432 13.946 10.2162 13.9706 10.295C13.9953 10.3738 14.0046 10.4568 13.9979 10.5393L13.8513 12.4225C13.839 12.5801 13.7692 12.7272 13.6559 12.8342C13.5427 12.9413 13.3942 13.0005 13.2403 13Z" fill="black"/>
<rect x="0.5" y="0.5" width="17" height="17" rx="4.5" stroke="black"/>
</svg>
