<svg width="200" height="200" viewBox="0 0 200 200" fill="none" xmlns="http://www.w3.org/2000/svg">
<g clip-path="url(#clip0_138_306)">
<mask id="mask0_138_306" style="mask-type:luminance" maskUnits="userSpaceOnUse" x="0" y="0" width="200" height="200">
<path d="M200 0H0V200H200V0Z" fill="white"/>
</mask>
<g mask="url(#mask0_138_306)">
<path d="M100 45.4547C112.531 45.4547 122.727 35.2585 122.727 22.7276C122.727 10.1966 112.531 0 100 0C87.4691 0 77.2729 10.1962 77.2729 22.7271C77.2729 35.2581 87.4687 45.4547 100 45.4547ZM100 9.09077C107.52 9.09077 113.636 15.2075 113.636 22.7271C113.636 30.2468 107.52 36.3635 100 36.3635C92.4805 36.3635 86.3637 30.2468 86.3637 22.7271C86.3637 15.2075 92.4805 9.09077 100 9.09077Z" fill="#557804"/>
<path d="M68.83 90.9091H131.17C136.541 90.9091 140.909 86.1948 140.909 80.3976V77.4858C140.909 69.8908 137.149 62.9529 131.09 59.3793C123.833 55.1 112.549 50 100 50C87.4513 50 76.1676 55.1004 68.9101 59.3793C62.8509 62.9524 59.0911 69.8908 59.0911 77.4858V80.3976C59.0911 86.1952 63.459 90.9091 68.83 90.9091ZM68.1818 77.4858C68.1818 73.158 70.2814 69.1271 73.5264 67.2095C79.8077 63.5073 89.5023 59.0908 100 59.0908C110.498 59.0908 120.193 63.5077 126.474 67.2095C129.719 69.1271 131.819 73.1575 131.819 77.4858V80.3976C131.819 81.3432 131.282 81.8179 131.17 81.8179H68.83C68.7192 81.8179 68.1818 81.3428 68.1818 80.3976V77.4858Z" fill="#557804"/>
<path d="M40.909 154.546C53.44 154.546 63.6362 144.35 63.6362 131.819C63.6362 119.288 53.44 109.091 40.909 109.091C28.3781 109.091 18.1819 119.287 18.1819 131.818C18.1819 144.349 28.3781 154.546 40.909 154.546ZM40.909 118.182C48.4286 118.182 54.5454 124.299 54.5454 131.818C54.5454 139.338 48.4286 145.455 40.909 145.455C33.3894 145.455 27.2727 139.338 27.2727 131.818C27.2727 124.299 33.3894 118.182 40.909 118.182Z" fill="#557804"/>
<path d="M71.9992 168.471C64.7417 164.191 53.458 159.091 40.9091 159.091C28.3602 159.091 17.0766 164.192 9.81904 168.471C3.7598 172.044 0 178.982 0 186.577V189.488C0 195.286 4.3679 200 9.73893 200H72.0793C77.4503 200 81.8182 195.286 81.8182 189.488V186.577C81.8182 178.982 78.0584 172.044 71.9992 168.471ZM72.7275 189.489C72.7275 190.435 72.1905 190.909 72.0793 190.909H9.73893C9.62813 190.909 9.09077 190.434 9.09077 189.489V186.577C9.09077 182.249 11.1903 178.218 14.4354 176.301C20.7166 172.599 30.4112 168.182 40.9091 168.182C51.407 168.182 61.1016 172.599 67.3829 176.301C70.6279 178.218 72.7275 182.249 72.7275 186.577V189.489Z" fill="#557804"/>
<path d="M159.091 154.546C171.622 154.546 181.818 144.35 181.818 131.819C181.818 119.288 171.622 109.091 159.091 109.091C146.56 109.091 136.364 119.287 136.364 131.818C136.364 144.349 146.56 154.546 159.091 154.546ZM159.091 118.182C166.611 118.182 172.727 124.299 172.727 131.818C172.727 139.338 166.611 145.455 159.091 145.455C151.571 145.455 145.455 139.338 145.455 131.818C145.455 124.299 151.572 118.182 159.091 118.182Z" fill="#557804"/>
<path d="M190.181 168.471C182.924 164.191 171.64 159.091 159.091 159.091C146.542 159.091 135.259 164.192 128.001 168.471C121.942 172.044 118.182 178.982 118.182 186.577V189.489C118.182 195.286 122.55 200 127.921 200H190.261C195.632 200 200 195.286 200 189.489V186.577C200 178.982 196.24 172.044 190.181 168.471ZM190.909 189.489C190.909 190.435 190.372 190.909 190.261 190.909H127.921C127.81 190.909 127.272 190.434 127.272 189.489V186.577C127.272 182.249 129.372 178.218 132.617 176.301C138.898 172.599 148.593 168.182 159.091 168.182C169.589 168.182 179.283 172.599 185.565 176.301C188.81 178.218 190.909 182.249 190.909 186.577V189.489Z" fill="#557804"/>
<path d="M122.723 154.546C124.059 154.546 125.378 153.96 126.279 152.841C127.846 150.879 127.526 148.02 125.568 146.449L104.546 129.631V104.546C104.546 102.033 102.513 100 100 100C97.4878 100 95.4547 102.033 95.4547 104.545V129.634L74.4321 146.449C72.4744 148.02 72.1548 150.879 73.7217 152.841C74.623 153.959 75.941 154.545 77.2774 154.545C78.2716 154.545 79.2751 154.221 80.1138 153.551L100 137.642L119.886 153.551C120.725 154.221 121.729 154.546 122.723 154.546Z" fill="#557804"/>
</g>
</g>
<defs>
<clipPath id="clip0_138_306">
<rect width="200" height="200" fill="white"/>
</clipPath>
</defs>
</svg>
