<svg width="18" height="18" viewBox="0 0 18 18" fill="none" xmlns="http://www.w3.org/2000/svg">
<path d="M3.06861 11.0553C2.81024 10.9245 2.58366 10.8091 2.35605 10.6947C1.75064 10.3906 1.14778 10.0824 0.539291 9.78541C0.204544 9.62232 -0.00307173 9.37769 0.000516679 8.99612C0.00410509 8.62379 0.211208 8.38736 0.538779 8.22632C1.31849 7.84322 2.09256 7.4478 2.86868 7.05752C2.92456 7.02931 2.97993 6.99905 3.05785 6.95802C2.9789 6.91545 2.92097 6.88212 2.86202 6.85237C2.08026 6.45901 1.29952 6.06308 0.515198 5.67485C0.192753 5.51586 0.00102931 5.27226 4.04834e-06 4.90966C-0.00102121 4.54656 0.192753 4.30244 0.512635 4.14294C3.20343 2.79874 5.8932 1.45248 8.58246 0.105202C8.86082 -0.0342952 9.13252 -0.0353209 9.40985 0.103664C12.1058 1.45351 14.8017 2.80335 17.4986 4.15166C17.8129 4.30859 18 4.55528 18 4.90659C18.0005 5.26661 17.8072 5.51381 17.4858 5.67382C16.702 6.06257 15.9218 6.45798 15.14 6.85135C15.079 6.88212 15.0185 6.91443 14.935 6.95853C15.1816 7.08367 15.4081 7.19958 15.6352 7.31395C16.2458 7.62115 16.8548 7.93194 17.4689 8.23299C17.798 8.39403 17.9954 8.63969 17.9933 9.01151C17.9913 9.38333 17.7873 9.62284 17.4597 9.78439C16.6743 10.1716 15.8946 10.5691 15.1129 10.9624C15.0621 10.9881 15.0129 11.0158 14.9427 11.0537C15.0175 11.0947 15.0739 11.1281 15.1323 11.1573C15.9028 11.544 16.6718 11.9343 17.4453 12.3153C17.777 12.4789 17.9933 12.7179 17.9944 13.0995C17.9954 13.4811 17.7816 13.7206 17.4499 13.8862C14.792 15.2125 12.1355 16.5413 9.48162 17.8752C9.15046 18.0414 8.84698 18.0419 8.5148 17.8747C5.86142 16.5403 3.20548 15.2125 0.548006 13.8873C0.216334 13.7221 0.000516679 13.4847 0.000516679 13.1026C4.04828e-06 12.7205 0.214796 12.4815 0.547493 12.3179C1.37744 11.9081 2.20329 11.4891 3.06861 11.0553ZM2.65133 4.90761C2.73643 4.95223 2.79692 4.98505 2.85792 5.01583C4.85051 6.01334 6.84413 7.0088 8.83468 8.01041C8.95771 8.07246 9.04896 8.06734 9.16891 8.00733C10.9831 7.09496 12.7999 6.1872 14.6161 5.27841C14.8509 5.16096 15.0852 5.04147 15.3405 4.91274C15.281 4.87838 15.2492 4.85787 15.2159 4.84094C13.189 3.82651 11.162 2.8131 9.13713 1.79507C9.02281 1.73763 8.93925 1.75815 8.8357 1.81046C7.23168 2.61565 5.62612 3.41724 4.02108 4.21987C3.57099 4.44501 3.12141 4.67119 2.65133 4.90761ZM2.65492 13.0975C2.70977 13.1293 2.73591 13.1462 2.76411 13.16C4.80284 14.1811 6.84106 15.2027 8.88338 16.2167C8.95566 16.2526 9.08228 16.2336 9.16071 16.1946C10.9165 15.3233 12.6692 14.4458 14.4218 13.5693C14.7233 13.4185 15.0232 13.2657 15.3487 13.101C14.6028 12.7272 13.8856 12.3641 13.1638 12.0122C13.1075 11.9846 13.0049 12.0174 12.9378 12.0507C11.7762 12.6261 10.6145 13.2026 9.45804 13.7883C9.13918 13.9498 8.84544 13.9442 8.52761 13.7831C7.37163 13.1964 6.21001 12.6205 5.04788 12.0456C4.98226 12.0133 4.88025 11.9902 4.82181 12.0184C4.10412 12.3682 3.39208 12.7282 2.65492 13.0975ZM15.3507 9.00484C14.6248 8.64174 13.9384 8.30274 13.2566 7.95348C13.1336 7.8904 13.0413 7.89758 12.9209 7.9581C11.7803 8.5325 10.633 9.09356 9.49495 9.67361C9.14943 9.85003 8.83775 9.84593 8.49429 9.67105C7.36189 9.09408 6.22078 8.53455 5.08581 7.96169C4.95919 7.89758 4.86282 7.88937 4.73261 7.95656C4.10822 8.27812 3.47718 8.58789 2.84869 8.90227C2.79435 8.92945 2.74258 8.96227 2.66825 9.00484C2.74258 9.04792 2.79435 9.08177 2.8492 9.10895C4.83719 10.1034 6.82619 11.0958 8.81212 12.0943C8.94694 12.162 9.04793 12.1635 9.18224 12.0953C10.6304 11.365 12.0827 10.6419 13.5335 9.91619C14.1271 9.62027 14.7187 9.3223 15.3507 9.00484Z" fill="white"/>
</svg>
