<svg width="50" height="50" viewBox="0 0 50 50" fill="none" xmlns="http://www.w3.org/2000/svg">
<path d="M14.0128 36.9975C14.5562 36.3717 15.0995 35.7409 15.648 35.1175C18.0392 32.4015 20.433 29.683 22.8268 26.9669C22.8755 26.9093 22.9242 26.8518 22.9806 26.7842C19.9896 22.5361 17.0038 18.2906 14 14.02C14.0871 14.0125 14.1435 14.005 14.1999 14.005C16.3528 14.005 18.5057 14.0075 20.6586 14C20.8123 14 20.8892 14.0551 20.9687 14.1702C22.8576 16.8612 24.7491 19.5497 26.6405 22.2357C26.6867 22.3033 26.7353 22.3659 26.7994 22.4535C27.1916 22.0104 27.5709 21.5824 27.9476 21.1518C29.9826 18.8438 32.0176 16.5358 34.0449 14.2228C34.1884 14.0576 34.3345 13.995 34.5524 14.0025C35.1085 14.0175 35.6647 14.0075 36.2747 14.0075C33.3965 17.2743 30.5516 20.5035 27.7016 23.7377C27.7503 23.8103 27.7913 23.8729 27.8349 23.9355C30.8489 28.2185 33.8629 32.5041 36.8744 36.7872C36.9205 36.8548 36.959 36.9274 37 36.9975C34.7164 36.9975 32.4328 36.9975 30.1492 36.9975C30.1236 36.9524 30.0979 36.9049 30.0672 36.8623C28.0425 33.9836 26.0177 31.1048 23.993 28.2286C23.9597 28.181 23.9187 28.1384 23.8725 28.0859C23.8008 28.166 23.7392 28.2311 23.6803 28.2987C22.0477 30.1536 20.4125 32.006 18.7799 33.8634C17.8624 34.9073 16.9474 35.9536 16.0299 37C15.3609 36.9975 14.6869 36.9975 14.0128 36.9975ZM16.7603 15.4944C16.8295 15.5971 16.868 15.6597 16.9115 15.7222C21.6043 22.2808 26.2996 28.8369 30.9899 35.3979C31.0847 35.5306 31.1846 35.5756 31.3461 35.5731C32.2201 35.5656 33.0915 35.5706 33.9655 35.5681C34.0372 35.5681 34.1115 35.5606 34.2243 35.5556C34.1474 35.443 34.0885 35.3604 34.0295 35.2753C29.4239 28.8419 24.8157 22.4085 20.2229 15.9651C19.9717 15.6146 19.7282 15.4619 19.2848 15.4844C18.4595 15.5245 17.6343 15.4944 16.7603 15.4944Z" fill="#039BE5"/>
<rect x="0.75" y="0.75" width="48.5" height="48.5" rx="24.25" stroke="white" stroke-opacity="0.1" stroke-width="1.5"/>
</svg>
